<svg id="Layer_1" data-name="Layer 1" xmlns="http://www.w3.org/2000/svg" xmlns:xlink="http://www.w3.org/1999/xlink" viewBox="0 0 194.44 45.23"><defs><style>.cls-1{fill:#fff;}.cls-2{fill:url(#linear-gradient);}.cls-3{fill:url(#linear-gradient-2);}</style><linearGradient id="linear-gradient" x1="169.8" y1="26.39" x2="192.86" y2="26.39" gradientUnits="userSpaceOnUse"><stop offset="0" stop-color="#475b07"/><stop offset="0.03" stop-color="#4b630f"/><stop offset="0.13" stop-color="#567b25"/><stop offset="0.24" stop-color="#5f8c35"/><stop offset="0.35" stop-color="#63963e"/><stop offset="0.5" stop-color="#659941"/><stop offset="0.64" stop-color="#63963e"/><stop offset="0.75" stop-color="#5e8c35"/><stop offset="0.85" stop-color="#557b25"/><stop offset="0.95" stop-color="#486310"/><stop offset="1" stop-color="#3f5301"/></linearGradient><linearGradient id="linear-gradient-2" x1="165.42" y1="11" x2="195.12" y2="11" gradientUnits="userSpaceOnUse"><stop offset="0" stop-color="#003e69"/><stop offset="0.06" stop-color="#005686"/><stop offset="0.13" stop-color="#006fa4"/><stop offset="0.21" stop-color="#0082bc"/><stop offset="0.29" stop-color="#0090cd"/><stop offset="0.39" stop-color="#0098d7"/><stop offset="0.5" stop-color="#009bda"/><stop offset="0.6" stop-color="#008cc8"/><stop offset="0.81" stop-color="#006598"/><stop offset="1" stop-color="#003e69"/></linearGradient></defs><path class="cls-1" d="M13.56,18.82l-2.49,6.76c-.64,1.81-1.06,3.16-1.38,4.35-.3-1.21-.71-2.56-1.31-4.35L6,18.82H3.53l-1,14H4.48l.38-6s.17-3.92.24-5.46c.33,1.32.78,2.81,1.44,4.75L8.8,32.79h1.52L12.78,26c.61-1.64,1.13-3.22,1.58-4.74,0,1.67.12,3.72.21,5.42l.35,6.18h2l-.88-14Z" transform="translate(-2.55 -3.88)"/><path class="cls-1" d="M18.59,27.87c0,3.08,2,5.22,4.87,5.22,2.52,0,5.06-1.66,5.06-5.38,0-3.12-2-5.22-4.9-5.22S18.59,24.65,18.59,27.87Zm2.05-.06c0-1.86.91-3.74,2.94-3.74s2.86,1.92,2.86,3.7c0,2.16-1.22,3.74-2.9,3.74S20.64,30,20.64,27.81Z" transform="translate(-2.55 -3.88)"/><path class="cls-1" d="M37.33,18.08v5.76a3.52,3.52,0,0,0-2.92-1.35,4.28,4.28,0,0,0-3,1.27,5.77,5.77,0,0,0-1.52,4.17c0,3,1.84,5.16,4.36,5.16a3.82,3.82,0,0,0,3.32-1.78c0,.4.08,1.56.08,1.56h1.84l-.08-2.68V18.08ZM31.9,27.85c0-2.22,1.15-3.72,2.85-3.72a2.55,2.55,0,0,1,2.5,2l.08.74v1.72l-.08.75a2.6,2.6,0,0,1-2.54,2.06C32.64,31.4,31.9,29.49,31.9,27.85Z" transform="translate(-2.55 -3.88)"/><path class="cls-1" d="M41.4,28a4.75,4.75,0,0,0,5,5.13,8.23,8.23,0,0,0,3.35-.64l.08,0-.36-1.52-.12.06a6.4,6.4,0,0,1-2.7.5,3.05,3.05,0,0,1-3.27-3.22h6.94l0-.19,0-.76c0-2.21-1.1-4.79-4.22-4.79C43.36,22.49,41.4,24.73,41.4,28ZM46,24a2.22,2.22,0,0,1,1.64.62,3.1,3.1,0,0,1,.74,2.08h-5C43.56,25.65,44.26,24,46,24Z" transform="translate(-2.55 -3.88)"/><path class="cls-1" d="M54.17,24.47c0-.43-.05-1.76-.05-1.76H52.31l.08,3.21v6.95h2V27.46l.08-.82a2.42,2.42,0,0,1,2.3-2.22l.72.07V22.56l-.62-.07A3,3,0,0,0,54.17,24.47Z" transform="translate(-2.55 -3.88)"/><path class="cls-1" d="M61,24.19c0-.38-.09-1.48-.09-1.48H59.09l.09,2.81v7.35h2V26.78l.12-.8a2.44,2.44,0,0,1,2.31-1.76c1.8,0,2.18,1.53,2.18,2.81v5.84h2v-6c0-4.13-3-4.34-3.63-4.34A3.73,3.73,0,0,0,61,24.19Z" transform="translate(-2.55 -3.88)"/><path class="cls-1" d="M88.05,18.82,86.2,25.88l-.07.29-.93,4c-.23-1.41-.57-2.94-.89-4.29l-1.7-7.1h-2L78.7,25.88c-.4,1.5-.79,3-1,4.37-.15-.73-.93-4.35-.93-4.35l-1.66-7.08H72.94l3.57,14h2l2-7.29c.43-1.48.72-2.72,1-4,.19,1.3.46,2.57.82,4l1.76,7.29h2l4-14Z" transform="translate(-2.55 -3.88)"/><path class="cls-1" d="M90.11,27.87c0,3.08,2,5.22,4.88,5.22,2.51,0,5.05-1.66,5.05-5.38,0-3.12-2-5.22-4.89-5.22S90.11,24.65,90.11,27.87Zm2.06-.06c0-1.86.91-3.74,2.94-3.74S98,26,98,27.77c0,2.16-1.22,3.74-2.9,3.74S92.17,30,92.17,27.81Z" transform="translate(-2.55 -3.88)"/><path class="cls-1" d="M101.37,27.87c0,3.08,2,5.22,4.87,5.22,2.52,0,5.06-1.66,5.06-5.38,0-3.12-2-5.22-4.89-5.22S101.37,24.65,101.37,27.87Zm2.06-.06c0-1.86.91-3.74,2.93-3.74s2.86,1.92,2.86,3.7c0,2.16-1.22,3.74-2.9,3.74S103.43,30,103.43,27.81Z" transform="translate(-2.55 -3.88)"/><path class="cls-1" d="M120.11,18.08v5.76a3.5,3.5,0,0,0-2.92-1.35,4.24,4.24,0,0,0-3,1.27,5.78,5.78,0,0,0-1.53,4.17c0,3,1.84,5.16,4.36,5.16a3.82,3.82,0,0,0,3.33-1.78c0,.4.07,1.56.07,1.56h1.85l-.09-2.68V18.08Zm-5.43,9.77c0-2.22,1.15-3.72,2.86-3.72a2.53,2.53,0,0,1,2.49,2l.08.74v1.72l-.08.75a2.6,2.6,0,0,1-2.53,2.06C115.42,31.4,114.68,29.49,114.68,27.85Z" transform="translate(-2.55 -3.88)"/><path class="cls-1" d="M133.66,23.21a4.38,4.38,0,0,0-1,1.21,3,3,0,0,0-2.84-1.93,3.51,3.51,0,0,0-3.08,1.69c0-.35-.07-1.47-.07-1.47h-1.81l.08,2.81v7.35h2v-6.1l.13-.84a2.38,2.38,0,0,1,2.13-1.73c1.23,0,2,1,2,2.6v6.07h2V26.62l.14-.87a2.22,2.22,0,0,1,2-1.55c1.68,0,2,1.6,2,2.93v5.74h2v-6c0-3.26-1.74-4.42-3.37-4.42A3.52,3.52,0,0,0,133.66,23.21Z" transform="translate(-2.55 -3.88)"/><path class="cls-1" d="M141.28,28a4.75,4.75,0,0,0,5,5.13,8.27,8.27,0,0,0,3.35-.64l.09,0-.37-1.52-.12.06a6.42,6.42,0,0,1-2.71.5,3.05,3.05,0,0,1-3.26-3.22h6.94l0-.19.05-.76c0-2.21-1.1-4.79-4.22-4.79C143.24,22.49,141.28,24.73,141.28,28ZM145.91,24a2.21,2.21,0,0,1,1.64.62,3.1,3.1,0,0,1,.74,2.08h-5C143.45,25.65,144.14,24,145.91,24Z" transform="translate(-2.55 -3.88)"/><path class="cls-1" d="M154.11,24.19c0-.38-.1-1.48-.1-1.48h-1.82l.08,2.81v7.35h2V26.78l.11-.8a2.45,2.45,0,0,1,2.32-1.76c1.8,0,2.18,1.53,2.18,2.81v5.84h2v-6c0-4.13-3-4.34-3.62-4.34A3.71,3.71,0,0,0,154.11,24.19Z" transform="translate(-2.55 -3.88)"/><path class="cls-1" d="M44,41.2h4.33v1.22H45.54v1.92h2.64v1.23H45.54V49H44Z" transform="translate(-2.55 -3.88)"/><path class="cls-1" d="M49.87,41.2h1.69c1.67,0,3.67-.06,3.67,2.1a1.78,1.78,0,0,1-1.61,1.81v0c.42,0,.67.46.82.81l1.25,3H54L53,46.55c-.23-.58-.43-.8-1.08-.8h-.51V49H49.87Zm1.56,3.32H52c.77,0,1.65-.11,1.65-1.08s-.87-1-1.65-1h-.52Z" transform="translate(-2.55 -3.88)"/><path class="cls-1" d="M59.5,41.2h1.76L64.32,49H62.59l-.67-1.78H58.76L58.08,49H56.46Zm.86,1.56h0L59.21,46h2.27Z" transform="translate(-2.55 -3.88)"/><path class="cls-1" d="M66.29,42.42H64.06V41.2h6v1.22H67.85V49H66.29Z" transform="translate(-2.55 -3.88)"/><path class="cls-1" d="M71.3,41.2h4.6v1.22h-3v1.92h2.78v1.23H72.86v2.19h3.06V49H71.3Z" transform="translate(-2.55 -3.88)"/><path class="cls-1" d="M77.81,41.2H79.5c1.67,0,3.67-.06,3.67,2.1a1.78,1.78,0,0,1-1.61,1.81v0c.43,0,.67.46.83.81l1.25,3H81.9L81,46.55c-.22-.58-.42-.8-1.08-.8h-.5V49H77.81Zm1.57,3.32h.51c.77,0,1.65-.11,1.65-1.08s-.87-1-1.65-1h-.51Z" transform="translate(-2.55 -3.88)"/><path class="cls-1" d="M85.13,41.2h1.92L90,47h0V41.2h1.49V49h-1.9l-3-5.82h0V49h-1.5Z" transform="translate(-2.55 -3.88)"/><path class="cls-1" d="M95.72,41.2h1.76L100.54,49H98.81l-.67-1.78H95L94.3,49H92.69Zm.86,1.56h0L95.43,46H97.7Z" transform="translate(-2.55 -3.88)"/><path class="cls-1" d="M102,41.2h1.56v6.56h3V49H102Z" transform="translate(-2.55 -3.88)"/><path class="cls-1" d="M111.56,41.2h4.33v1.22h-2.77v1.92h2.63v1.23h-2.63V49h-1.56Z" transform="translate(-2.55 -3.88)"/><path class="cls-1" d="M117.45,41.2H119V49h-1.56Z" transform="translate(-2.55 -3.88)"/><path class="cls-1" d="M121.05,41.2H123l3,5.82h0V41.2h1.49V49h-1.9l-3-5.82h0V49h-1.5Z" transform="translate(-2.55 -3.88)"/><path class="cls-1" d="M131.86,41.2h1.76L136.68,49H135l-.67-1.78h-3.16L130.44,49h-1.61Zm.86,1.56h0L131.57,46h2.28Z" transform="translate(-2.55 -3.88)"/><path class="cls-1" d="M138.05,41.2H140l3,5.82h0V41.2h1.49V49h-1.9l-3-5.82h0V49h-1.5Z" transform="translate(-2.55 -3.88)"/><path class="cls-1" d="M151.85,48.87a8.12,8.12,0,0,1-1.77.25c-2.53,0-4.28-1.26-4.28-3.9s1.63-4.16,4.28-4.16a5,5,0,0,1,1.76.33l-.11,1.31a3.27,3.27,0,0,0-1.69-.41,2.61,2.61,0,0,0-2.61,2.82,2.56,2.56,0,0,0,2.65,2.78,4.15,4.15,0,0,0,1.7-.33Z" transform="translate(-2.55 -3.88)"/><path class="cls-1" d="M153.53,41.2h1.57V49h-1.57Z" transform="translate(-2.55 -3.88)"/><path class="cls-1" d="M159.45,41.2h1.76l3,7.78h-1.72l-.67-1.78h-3.16L158,49h-1.62Zm.85,1.56h0L159.16,46h2.27Z" transform="translate(-2.55 -3.88)"/><path class="cls-1" d="M165.71,41.2h1.57v6.56h3V49h-4.59Z" transform="translate(-2.55 -3.88)"/><path class="cls-1" d="M180,3.88a47.35,47.35,0,0,0-16.42,2.64s2.56,20.56,16.69,33.36h0C194.34,27.22,196.93,7.07,197,6.54A58,58,0,0,0,180,3.88Z" transform="translate(-2.55 -3.88)"/><path class="cls-2" d="M172,25.86a39.65,39.65,0,0,1,20.46-8.35c-.27.73-.54,1.44-.83,2.14a39.36,39.36,0,0,0-17.27,9.94C173.5,28.4,172.71,27.15,172,25.86Zm3.71,5.56a43,43,0,0,0,4.6,5.08h0a47.79,47.79,0,0,0,11-16.19C185.2,23,180.34,26,175.68,31.42ZM169.8,21.6c.43,1,.89,1.89,1.37,2.79a41.82,41.82,0,0,1,21.41-7.3c.1-.27.19-.54.28-.81C185.19,16.11,175.82,18.13,169.8,21.6Z" transform="translate(-2.55 -3.88)"/><path class="cls-3" d="M195.12,7.72a69.5,69.5,0,0,0-29.7,0h0c.13.63.26,1.25.4,1.86,3.54.88,10.45-2.21,10.39,1.86,10.62-1.08,12,.51,12.27,1.88,2.9-.36,4.53.49,4.44,2.57H193A64.61,64.61,0,0,0,195.12,7.72Z" transform="translate(-2.55 -3.88)"/><path class="cls-1" d="M191.8,34.92a2.54,2.54,0,0,1,2.58,2.5,2.45,2.45,0,0,1-2.5,2.54,2.57,2.57,0,0,1-2.61-2.54,2.45,2.45,0,0,1,2.52-2.5Zm0,.44a2,2,0,0,0-2,2.06,2.06,2.06,0,0,0,2.06,2.08,1.93,1.93,0,0,0,1.94-2.06,2,2,0,0,0-2-2.08Zm-.38,3.45h-.49l0-2.63a4.73,4.73,0,0,1,.91-.08,1.31,1.31,0,0,1,.84.21.69.69,0,0,1,.27.55.65.65,0,0,1-.5.63v0a.83.83,0,0,1,.45.63,1.71,1.71,0,0,0,.2.66h-.51a1.85,1.85,0,0,1-.21-.69c-.07-.29-.25-.41-.62-.41h-.32Zm0-1.48h.33c.37,0,.68-.11.68-.43s-.17-.42-.64-.42a2.48,2.48,0,0,0-.38,0Z" transform="translate(-2.55 -3.88)"/><path class="cls-1" d="M191.72,34.93a2.57,2.57,0,0,1,2.58,2.51A2.46,2.46,0,0,1,191.79,40a2.56,2.56,0,0,1-2.61-2.53,2.46,2.46,0,0,1,2.52-2.51Zm0,.45a2,2,0,0,0-2,2.06,2.06,2.06,0,0,0,2.07,2.08,1.94,1.94,0,0,0,1.93-2.07,2,2,0,0,0-2-2.07Zm-.38,3.44h-.49l0-2.63a5.7,5.7,0,0,1,.91-.08,1.31,1.31,0,0,1,.84.21.71.71,0,0,1,.28.55.66.66,0,0,1-.51.63v0a.82.82,0,0,1,.45.63,2.2,2.2,0,0,0,.2.66h-.5a1.8,1.8,0,0,1-.22-.69c-.07-.28-.24-.41-.62-.41h-.32Zm0-1.48h.33c.36,0,.67-.11.67-.42s-.17-.43-.64-.43a1.49,1.49,0,0,0-.38,0Z" transform="translate(-2.55 -3.88)"/></svg>